# xmcd
#
# Track frame offsets: 
#        150
#        12730
#        22477
#        42577
#        51910
#        68645
#        79740
#        90207
#        105412
#        123972
#        135452
#        141675
#        152460
#        172760
#        189825
#        204182
#        211922
#        222992
#        243675
#        254932
#        272117
#        292570
#        304320
#        320475
#
# Disc length: 4522 seconds
#
# Revision: 1
# Processed by: cddbd v1.5.2PL0 Copyright (c) Steve Scherf et al.
# Submitted via: ExactAudioCopy v1.0b3
#
DISCID=5f11a818
DTITLE=Burning Sunflower Blues Band - I Wish You Would - Burning Sunfl
DTITLE=ower Blues Band
DYEAR=2003
DGENRE=Blues
TTITLE0=I Wish You Would
TTITLE1=On The Road
TTITLE2=Checking On My Baby
TTITLE3=I'm A Star
TTITLE4=Broken Hearted
TTITLE5=Bob's Boogie
TTITLE6=Mean Old 57
TTITLE7=Uranus
TTITLE8=Bad Luck
TTITLE9=All Right With Me
TTITLE10=C&W Blues
TTITLE11=Good Golly Miss kelly
TTITLE12=Call Me
TTITLE13=Gotta Keep Running
TTITLE14=Put A Record On
TTITLE15=Once Upon A Time
TTITLE16=Be Satisfied
TTITLE17=Now Your Crying
TTITLE18=Bogey Man
TTITLE19=Feel So Bad
TTITLE20=Rolling Down The Highway
TTITLE21=Waiting For You
TTITLE22=Too Poor To Die
TTITLE23=Things Are Getting Better
EXTD=YEAR: 1999
EXTT0=
EXTT1=
EXTT2=
EXTT3=
EXTT4=
EXTT5=
EXTT6=
EXTT7=
EXTT8=
EXTT9=
EXTT10=
EXTT11=
EXTT12=
EXTT13=
EXTT14=
EXTT15=
EXTT16=
EXTT17=
EXTT18=
EXTT19=
EXTT20=
EXTT21=
EXTT22=
EXTT23=
PLAYORDER=
